<?xml version="1.0" encoding="UTF-8" standalone="no" ?>
<!DOCTYPE svg PUBLIC "-//W3C//DTD SVG 1.1//EN" "http://www.w3.org/Graphics/SVG/1.1/DTD/svg11.dtd">
<svg xmlns="http://www.w3.org/2000/svg" version="1.1" width="600" height="160" viewBox="0 0 600 160"
     xml:space="preserve">
    <g transform="matrix(1 0 0 1 300 80)" id="40ca52d8-9198-4a6f-89d1-092327157139">
<rect style="stroke: none; stroke-width: 1; stroke-dasharray: none; stroke-linecap: butt; stroke-dashoffset: 0; stroke-linejoin: miter; stroke-miterlimit: 4; fill: rgb(255,255,255); fill-rule: nonzero; opacity: 1; visibility: hidden;"
      vector-effect="non-scaling-stroke" x="-300" y="-80" rx="0" ry="0" width="600" height="160"/>
</g>
    <g id="slogan">
    <g transform="matrix(0.75 0 0 0.75 298.57 131.36)">
<path style="stroke: rgb(93,87,87); stroke-width: 0; stroke-dasharray: none; stroke-linecap: butt; stroke-dashoffset: 0; stroke-linejoin: miter; stroke-miterlimit: 2; fill: rgb(93,87,87); fill-rule: nonzero; opacity: 1;"
      vector-effect="non-scaling-stroke" transform=" translate(-400.96, 11.15)"
      d="M 397.23425 -22.304 L 395.69825 -22.304 L 395.69825 -22.304 L 392.11424999999997 -22.304 L 392.11424999999997 0 L 397.23425 0 C 402.13025 0 409.81025 -2.272 409.81025 -11.136 C 409.81025 -20 402.13025 -22.304 397.23425 -22.304 z M 397.61825 -3.1359999999999992 L 395.69825 -3.1359999999999992 L 395.69825 -17.28 L 393.10625 -19.168 L 397.61825 -19.168 C 400.40225 -19.168 406.22625 -17.855999999999998 406.22625 -11.136 C 406.22625 -4.4479999999999995 400.40225 -3.1359999999999992 397.61825 -3.1359999999999992 z"
      stroke-linecap="round"/>
</g>
        <g transform="matrix(0.75 0 0 0.75 315.33 130.87)">
<path style="stroke: rgb(93,87,87); stroke-width: 0; stroke-dasharray: none; stroke-linecap: butt; stroke-dashoffset: 0; stroke-linejoin: miter; stroke-miterlimit: 2; fill: rgb(93,87,87); fill-rule: nonzero; opacity: 1;"
      vector-effect="non-scaling-stroke" transform=" translate(-421.3, 11.81)"
      d="M 423.09325 -19.872 L 421.30125000000004 -23.616 L 419.50925000000007 -19.872 L 409.97325000000006 0 L 413.55725000000007 0 L 415.44525000000004 -3.936 L 413.42925 -5.4079999999999995 L 426.45325 -5.4079999999999995 L 429.04525 8.881784197001252e-16 L 432.62925 8.881784197001252e-16 z M 417.65325 -8.544 L 421.30125000000004 -16.128 L 424.94925000000006 -8.544 z"
      stroke-linecap="round"/>
</g>
        <g transform="matrix(0.75 0 0 0.75 328.48 131.36)">
<path style="stroke: rgb(93,87,87); stroke-width: 0; stroke-dasharray: none; stroke-linecap: butt; stroke-dashoffset: 0; stroke-linejoin: miter; stroke-miterlimit: 2; fill: rgb(93,87,87); fill-rule: nonzero; opacity: 1;"
      vector-effect="non-scaling-stroke" transform=" translate(-436.84, 11.15)"
      d="M 438.63575 0 L 438.63575 -22.304 L 435.05174999999997 -22.304 L 435.05174999999997 0 Z"
      stroke-linecap="round"/>
</g>
        <g transform="matrix(0.75 0 0 0.75 338.55 131.36)">
<path style="stroke: rgb(93,87,87); stroke-width: 0; stroke-dasharray: none; stroke-linecap: butt; stroke-dashoffset: 0; stroke-linejoin: miter; stroke-miterlimit: 2; fill: rgb(93,87,87); fill-rule: nonzero; opacity: 1;"
      vector-effect="non-scaling-stroke" transform=" translate(-448.27, 11.15)"
      d="M 446.69825 -22.304 L 443.11424999999997 -22.304 L 443.11424999999997 0 L 453.41824999999994 0 L 453.41824999999994 -3.136 L 446.6982499999999 -3.136 z"
      stroke-linecap="round"/>
</g>
        <g transform="matrix(0.75 0 0 0.75 348.79 131.36)">
<path style="stroke: rgb(93,87,87); stroke-width: 0; stroke-dasharray: none; stroke-linecap: butt; stroke-dashoffset: 0; stroke-linejoin: miter; stroke-miterlimit: 2; fill: rgb(93,87,87); fill-rule: nonzero; opacity: 1;"
      vector-effect="non-scaling-stroke" transform=" translate(-459.92, 11.15)"
      d="M 458.11375 -9.632 L 458.11375 -9.632 L 458.11375 0 L 461.72974999999997 0 L 461.72974999999997 -9.632 L 461.72974999999997 -9.632 L 461.88975 -9.984 L 469.12175 -22.304000000000002 L 465.15375 -22.304000000000002 L 459.90575 -13.376000000000001 L 454.68975 -22.304000000000002 L 450.72175 -22.304000000000002 L 457.92175 -9.984000000000002 z"
      stroke-linecap="round"/>
</g>
        <g transform="matrix(0.75 0 0 0.75 372.38 131.38)">
<path style="stroke: rgb(93,87,87); stroke-width: 0; stroke-dasharray: none; stroke-linecap: butt; stroke-dashoffset: 0; stroke-linejoin: miter; stroke-miterlimit: 2; fill: rgb(93,87,87); fill-rule: nonzero; opacity: 1;"
      vector-effect="non-scaling-stroke" transform=" translate(-489.37, 11.14)"
      d="M 489.89625 -9.312 C 492.64825 -9.888 495.14425 -11.456 495.14425 -15.68 C 495.14425 -21.759999999999998 489.96025 -22.304 486.24825 -22.304 L 481.89625 -22.304 L 481.89625 0 L 485.48025 0 L 485.48025 -9.024 L 485.89625 -9.024 L 492.61625000000004 0.03200000000000003 L 496.84025 0.03200000000000003 z M 485.48025 -17.503999999999998 L 483.14425 -19.168 L 487.14425 -19.168 C 489.03225 -19.168 491.56025 -18.88 491.56025 -15.68 C 491.56025 -12.448 489.03225 -12.16 487.14425 -12.16 L 485.48025 -12.16 z"
      stroke-linecap="round"/>
</g>
        <g transform="matrix(0.75 0 0 0.75 386.42 131.36)">
<path style="stroke: rgb(93,87,87); stroke-width: 0; stroke-dasharray: none; stroke-linecap: butt; stroke-dashoffset: 0; stroke-linejoin: miter; stroke-miterlimit: 2; fill: rgb(93,87,87); fill-rule: nonzero; opacity: 1;"
      vector-effect="non-scaling-stroke" transform=" translate(-506.09, 11.15)"
      d="M 512.44325 -22.304 L 499.73925 -22.304 L 499.73925 0 L 512.44325 0 L 512.44325 -3.136 L 503.32325000000003 -3.136 L 503.32325000000003 -10.624 L 511.64325 -10.624 L 511.64325 -13.760000000000002 L 503.32325000000003 -13.760000000000002 L 503.32325000000003 -17.28 L 500.73125000000005 -19.168 L 503.32325000000003 -19.168 L 503.32325000000003 -19.168 L 512.44325 -19.168 z"
      stroke-linecap="round"/>
</g>
        <g transform="matrix(0.75 0 0 0.75 402.42 130.87)">
<path style="stroke: rgb(93,87,87); stroke-width: 0; stroke-dasharray: none; stroke-linecap: butt; stroke-dashoffset: 0; stroke-linejoin: miter; stroke-miterlimit: 2; fill: rgb(93,87,87); fill-rule: nonzero; opacity: 1;"
      vector-effect="non-scaling-stroke" transform=" translate(-525.43, 11.81)"
      d="M 527.21825 -19.872 L 525.42625 -23.616 L 523.63425 -19.872 L 514.09825 0 L 517.68225 0 L 519.57025 -3.936 L 517.55425 -5.4079999999999995 L 530.57825 -5.4079999999999995 L 533.17025 8.881784197001252e-16 L 536.75425 8.881784197001252e-16 z M 521.77825 -8.544 L 525.42625 -16.128 L 529.07425 -8.544 z"
      stroke-linecap="round"/>
</g>
        <g transform="matrix(0.75 0 0 0.75 420.87 131.36)">
<path style="stroke: rgb(93,87,87); stroke-width: 0; stroke-dasharray: none; stroke-linecap: butt; stroke-dashoffset: 0; stroke-linejoin: miter; stroke-miterlimit: 2; fill: rgb(93,87,87); fill-rule: nonzero; opacity: 1;"
      vector-effect="non-scaling-stroke" transform=" translate(-548.02, 11.15)"
      d="M 544.29675 -22.304 L 542.76075 -22.304 L 542.76075 -22.304 L 539.1767500000001 -22.304 L 539.1767500000001 0 L 544.2967500000001 0 C 549.19275 0 556.8727500000001 -2.272 556.8727500000001 -11.136 C 556.8727500000001 -20 549.1927500000002 -22.304 544.2967500000001 -22.304 z M 544.68075 -3.1359999999999992 L 542.76075 -3.1359999999999992 L 542.76075 -17.28 L 540.16875 -19.168 L 544.68075 -19.168 C 547.46475 -19.168 553.2887499999999 -17.855999999999998 553.2887499999999 -11.136 C 553.2887499999999 -4.4479999999999995 547.46475 -3.1359999999999992 544.68075 -3.1359999999999992 z"
      stroke-linecap="round"/>
</g>
        <g transform="matrix(0.75 0 0 0.75 432.92 131.36)">
<path style="stroke: rgb(93,87,87); stroke-width: 0; stroke-dasharray: none; stroke-linecap: butt; stroke-dashoffset: 0; stroke-linejoin: miter; stroke-miterlimit: 2; fill: rgb(93,87,87); fill-rule: nonzero; opacity: 1;"
      vector-effect="non-scaling-stroke" transform=" translate(-562.09, 11.15)"
      d="M 563.88575 0 L 563.88575 -22.304 L 560.3017500000001 -22.304 L 560.3017500000001 0 Z"
      stroke-linecap="round"/>
</g>
        <g transform="matrix(0.75 0 0 0.75 446.69 131.36)">
<path style="stroke: rgb(93,87,87); stroke-width: 0; stroke-dasharray: none; stroke-linecap: butt; stroke-dashoffset: 0; stroke-linejoin: miter; stroke-miterlimit: 2; fill: rgb(93,87,87); fill-rule: nonzero; opacity: 1;"
      vector-effect="non-scaling-stroke" transform=" translate(-578.46, 11.15)"
      d="M 584.94025 -6.752 L 571.98025 -19.936 L 569.6442499999999 -22.304 L 568.3962499999999 -23.616 L 568.3962499999999 0 L 571.9802499999998 0 L 571.9802499999998 -15.552 L 584.9402499999999 -2.3680000000000003 L 587.2762499999999 -4.440892098500626e-16 L 588.5242499999999 1.3119999999999996 L 588.5242499999999 -22.304 L 584.94025 -22.304 z"
      stroke-linecap="round"/>
</g>
        <g transform="matrix(0.75 0 0 0.75 467.26 131.36)">
<path style="stroke: rgb(93,87,87); stroke-width: 0; stroke-dasharray: none; stroke-linecap: butt; stroke-dashoffset: 0; stroke-linejoin: miter; stroke-miterlimit: 2; fill: rgb(93,87,87); fill-rule: nonzero; opacity: 1;"
      vector-effect="non-scaling-stroke" transform=" translate(-603.89, 11.15)"
      d="M 604.76525 -11.552 L 604.76525 -8.416 L 611.83725 -8.416 C 610.68525 -5.152000000000001 607.5812500000001 -2.8160000000000007 603.8692500000001 -2.8160000000000007 C 599.2292500000001 -2.8160000000000007 595.45325 -6.5600000000000005 595.45325 -11.136000000000001 C 595.45325 -15.744 599.22925 -19.488 603.8692500000001 -19.488 C 606.7812500000001 -19.488 609.3092500000001 -18.048 610.8452500000001 -15.872 L 614.7812500000001 -15.872 C 612.8932500000001 -19.84 608.7332500000001 -22.624 603.8692500000001 -22.624 C 597.2772500000001 -22.624 591.93325 -17.503999999999998 591.93325 -11.136 C 591.93325 -4.799999999999999 597.2772500000001 0.3200000000000003 603.8692500000001 0.3200000000000003 C 609.50125 0.3200000000000003 614.2052500000001 -3.392 615.4852500000001 -8.416 C 615.7092500000001 -9.280000000000001 615.83725 -10.208 615.83725 -11.136000000000001 C 615.83725 -11.296000000000001 615.83725 -11.424000000000001 615.83725 -11.552000000000001 z"
      stroke-linecap="round"/>
</g>
        <g transform="matrix(0.75 0 0 0.75 484.86 131.35)">
<path style="stroke: rgb(93,87,87); stroke-width: 0; stroke-dasharray: none; stroke-linecap: butt; stroke-dashoffset: 0; stroke-linejoin: miter; stroke-miterlimit: 2; fill: rgb(93,87,87); fill-rule: nonzero; opacity: 1;"
      vector-effect="non-scaling-stroke" transform=" translate(-625.35, 11.17)"
      d="M 622.53825 -16.768 C 622.53825 -18.496000000000002 624.3622499999999 -19.488 625.89825 -19.488 C 627.40225 -19.488 628.90625 -18.368 628.90625 -17.311999999999998 L 632.42625 -17.279999999999998 C 632.42625 -19.775999999999996 630.28225 -22.656 625.93025 -22.656 C 621.54625 -22.656 619.05025 -19.456 619.05025 -16.768 C 619.05025 -10.048000000000002 629.19425 -11.616 629.19425 -6.496 C 629.19425 -5.056000000000001 628.10625 -2.8160000000000003 625.45025 -2.8160000000000003 C 622.82625 -2.8160000000000003 621.64225 -4.768000000000001 621.51425 -6.944000000000001 L 618.0262499999999 -6.944000000000001 C 618.0262499999999 -4.704000000000001 619.5622499999998 0.3199999999999994 625.3222499999999 0.3199999999999994 C 631.0822499999999 0.3199999999999994 632.68225 -4.5440000000000005 632.68225 -6.752000000000001 C 632.68225 -13.888000000000002 622.53825 -12.992 622.53825 -16.768 z"
      stroke-linecap="round"/>
</g>
    </g>
    <g id="letter-logo">
    <g transform="matrix(1.35 0 0 1.35 106.17 63.75)">
<path style="stroke: #FF7E36; stroke-width: 0; stroke-dasharray: none; stroke-linecap: butt; stroke-dashoffset: 0; stroke-linejoin: miter; stroke-miterlimit: 2; fill: #FF7E36; fill-rule: nonzero; opacity: 1;"
      vector-effect="non-scaling-stroke" transform=" translate(-402.23, 24.05)"
      d="M 419.43556 -10.008 L 419.43556 0 L 385.01956 0 L 385.01956 -48.096 L 396.39556 -48.096 L 396.39556 -10.007999999999996 z"
      stroke-linecap="round"/>
</g>
        <g transform="matrix(1.35 0 0 1.35 187.12 63.75)">
<path style="stroke: #FF7E36;  stroke-width: 0; stroke-dasharray: none; stroke-linecap: butt; stroke-dashoffset: 0; stroke-linejoin: miter; stroke-miterlimit: 2; fill: #FF7E36; fill-rule: nonzero; opacity: 1;"
      vector-effect="non-scaling-stroke" transform=" translate(-442.2, 24.05)"
      d="M 423.69144 -48.096 L 460.69944 -48.096 L 460.69944 -38.087999999999994 L 435.06744 -38.087999999999994 L 435.06744 -29.735999999999994 L 450.69144 -29.735999999999994 L 450.69144 -19.727999999999994 L 435.06744 -19.727999999999994 L 435.06744 -10.007999999999994 L 460.69944 -10.007999999999994 L 460.69944 0 L 423.69144 0 z"
      stroke-linecap="round"/>
</g>
        <g transform="matrix(1.35 0 0 1.35 271.24 63.75)">
<path style="stroke: #FF7E36;  stroke-width: 0; stroke-dasharray: none; stroke-linecap: butt; stroke-dashoffset: 0; stroke-linejoin: miter; stroke-miterlimit: 2; fill: #FF7E36; fill-rule: nonzero; opacity: 1;"
      vector-effect="non-scaling-stroke" transform=" translate(-484.5, 24.05)"
      d="M 463.36906 -48.096 L 505.63306 -48.096 L 505.63306 -38.087999999999994 L 490.15306 -38.087999999999994 L 490.15306 0 L 478.84906 0 L 478.84906 -38.088 L 463.36906 -38.088 z"
      stroke-linecap="round"/>
</g>
        <g transform="matrix(1.35 0 0 1.35 361.07 63.75)">
<path style="stroke: #FF7E36;  stroke-width: 0; stroke-dasharray: none; stroke-linecap: butt; stroke-dashoffset: 0; stroke-linejoin: miter; stroke-miterlimit: 2; fill: #FF7E36; fill-rule: nonzero; opacity: 1;"
      vector-effect="non-scaling-stroke" transform=" translate(-531.05, 24.05)"
      d="M 509.91594 -48.096 L 552.17994 -48.096 L 552.17994 -38.087999999999994 L 536.69994 -38.087999999999994 L 536.69994 0 L 525.39594 0 L 525.39594 -38.088 L 509.91594 -38.088 z"
      stroke-linecap="round"/>
</g>
        <g transform="matrix(1.35 0 0 1.35 447.33 63.75)">
<path style="stroke: #FF7E36;  stroke-width: 0; stroke-dasharray: none; stroke-linecap: butt; stroke-dashoffset: 0; stroke-linejoin: miter; stroke-miterlimit: 2; fill: #FF7E36; fill-rule: nonzero; opacity: 1;"
      vector-effect="non-scaling-stroke" transform=" translate(-574.95, 24.05)"
      d="M 556.44144 -48.096 L 593.44944 -48.096 L 593.44944 -38.087999999999994 L 567.81744 -38.087999999999994 L 567.81744 -29.735999999999994 L 583.4414400000001 -29.735999999999994 L 583.4414400000001 -19.727999999999994 L 567.81744 -19.727999999999994 L 567.81744 -10.007999999999994 L 593.44944 -10.007999999999994 L 593.44944 0 L 556.44144 0 z"
      stroke-linecap="round"/>
</g>
        <g transform="matrix(1.35 0 0 1.35 534.56 63.75)">
<path style="stroke: #FF7E36;  stroke-width: 0; stroke-dasharray: none; stroke-linecap: butt; stroke-dashoffset: 0; stroke-linejoin: miter; stroke-miterlimit: 2; fill: #FF7E36; fill-rule: nonzero; opacity: 1;"
      vector-effect="non-scaling-stroke" transform=" translate(-619.56, 24.05)"
      d="M 616.71106 -48.096 Q 621.3910599999999 -48.096 625.35106 -47.44799999999999 Q 629.38306 -46.79999999999999 632.26306 -45.14399999999999 Q 635.21506 -43.48799999999999 636.8710599999999 -40.535999999999994 Q 638.5270599999999 -37.65599999999999 638.5270599999999 -33.19199999999999 Q 638.5270599999999 -31.175999999999995 637.9510599999999 -29.087999999999994 Q 637.4470599999999 -26.999999999999993 636.1510599999999 -25.127999999999993 Q 634.8550599999999 -23.327999999999992 632.6230599999999 -21.815999999999992 Q 630.3910599999999 -20.30399999999999 626.9350599999999 -19.36799999999999 L 640.90306 0 L 627.7270599999999 0 L 614.6950599999999 -18.144 L 609.5830599999999 -18.144 L 609.5830599999999 0 L 598.20706 0 L 598.20706 -48.096 L 616.71106 -48.096 z M 609.5830599999999 -27.647999999999996 L 617.07106 -27.647999999999996 Q 619.08706 -27.647999999999996 620.81506 -27.863999999999997 Q 622.54306 -28.08 623.76706 -28.656 Q 625.0630600000001 -29.304 625.78306 -30.311999999999998 Q 626.50306 -31.391999999999996 626.50306 -33.047999999999995 Q 626.50306 -34.70399999999999 625.78306 -35.78399999999999 Q 625.06306 -36.86399999999999 623.76706 -37.43999999999999 Q 622.54306 -38.087999999999994 620.81506 -38.30399999999999 Q 619.0870600000001 -38.51999999999999 617.07106 -38.51999999999999 L 609.5830599999999 -38.51999999999999 L 609.5830599999999 -27.64799999999999 z"
      stroke-linecap="round"/>
</g>
    </g>
    <g transform="matrix(0.28 0 0 0.28 26.5 80.5)" id="dot">
        <circle style="fill: rgb(20,20,20);" cx="0" cy="00" r="44"/>
    </g>
</svg>